<svg width="44" height="54" viewBox="0 0 44 54" fill="none" xmlns="http://www.w3.org/2000/svg">
<path fill-rule="evenodd" clip-rule="evenodd" d="M1.41255 51.5342L2.5513 51.927C1.41255 51.5342 1.41255 51.5342 1.41255 51.5342L1.4208 51.5102L1.44379 51.4436C1.46393 51.3856 1.49357 51.3004 1.53205 51.1909C1.60899 50.9719 1.72134 50.6552 1.86378 50.2619C2.14855 49.4757 2.5542 48.3819 3.03826 47.15C4.00021 44.7019 5.29418 41.6506 6.5782 39.3925C8.08914 36.7353 10.3816 35.0644 12.3132 33.6565C12.704 33.3717 13.08 33.0976 13.4318 32.8283C14.5194 31.9957 15.4011 31.2066 16.0205 30.2725C16.6205 29.3674 17.0059 28.2771 17.0059 26.7862C17.0059 25.2953 16.6205 24.205 16.0205 23.3C15.4011 22.3659 14.5194 21.5767 13.4318 20.7442C13.08 20.4749 12.704 20.2008 12.3132 19.916C10.3816 18.5081 8.08914 16.8371 6.5782 14.18C5.29418 11.9219 4.00021 8.87055 3.03826 6.42246C2.5542 5.19056 2.14854 4.09671 1.86378 3.31051C1.72134 2.91725 1.60899 2.60054 1.53204 2.38153C1.49357 2.27201 1.46393 2.1869 1.44379 2.12882L1.4208 2.0623L1.4132 2.0402L1.41275 2.0389C1.41275 2.0389 1.41255 2.0383 2.55129 1.64541L1.41255 2.0383L0.864133 0.436714L43.2525 0.436712L42.7041 2.03829L41.5653 1.64541C42.7041 2.03829 42.7041 2.03829 42.7041 2.03829L42.7039 2.0389L42.7034 2.0402L42.6958 2.0623L42.6728 2.12882C42.6527 2.1869 42.6231 2.27201 42.5846 2.38153C42.5076 2.60054 42.3953 2.91725 42.2528 3.31051C41.9681 4.0967 41.5624 5.19056 41.0784 6.42246C40.1164 8.87055 38.8224 11.9219 37.5384 14.18C36.0275 16.8371 33.735 18.5081 31.8034 19.916C31.4126 20.2008 31.0366 20.4749 30.6848 20.7442C29.5972 21.5767 28.7155 22.3659 28.0962 23.3C27.4961 24.205 27.1107 25.2953 27.1107 26.7862C27.1107 28.2771 27.4961 29.3674 28.0962 30.2725C28.7155 31.2066 29.5972 31.9957 30.6848 32.8283C31.0366 33.0976 31.4126 33.3717 31.8034 33.6565C33.735 35.0644 36.0275 36.7353 37.5384 39.3925C38.8224 41.6506 40.1164 44.7019 41.0784 47.15C41.5624 48.3819 41.9681 49.4757 42.2528 50.2619C42.3953 50.6552 42.5076 50.9719 42.5846 51.1909C42.6231 51.3004 42.6527 51.3856 42.6728 51.4436L42.6958 51.5102L42.7039 51.5336C42.7039 51.5336 42.7041 51.5342 41.5653 51.927L42.7041 51.5342L43.2525 53.1357L0.864136 53.1357L1.41255 51.5342ZM39.855 50.7184C39.5883 49.9898 39.2407 49.0618 38.8381 48.037C37.8831 45.6068 36.6408 42.6904 35.4469 40.5908C34.2161 38.4263 32.42 37.1086 30.5073 35.7054C30.0838 35.3947 29.6545 35.0797 29.2244 34.7505C28.0805 33.8748 26.9382 32.889 26.0913 31.6119C25.2253 30.3057 24.7024 28.7485 24.7024 26.7862C24.7024 24.8239 25.2253 23.2668 26.0913 21.9606C26.9382 20.6834 28.0805 19.6976 29.2244 18.822C29.6545 18.4927 30.0838 18.1778 30.5073 17.867C32.42 16.4638 34.2161 15.1461 35.4469 12.9816C36.6408 10.882 37.8831 7.96567 38.8381 5.53548C39.2407 4.51069 39.5883 3.58268 39.8549 2.8541L4.26167 2.8541C4.52831 3.58268 4.87589 4.51069 5.27857 5.53548C6.23348 7.96567 7.47584 10.882 8.66975 12.9816C9.90054 15.1461 11.6966 16.4638 13.6093 17.867C14.0328 18.1778 14.4621 18.4927 14.8922 18.822C16.0361 19.6976 17.1785 20.6834 18.0253 21.9606C18.8913 23.2668 19.4142 24.8239 19.4142 26.7862C19.4142 28.7485 18.8913 30.3057 18.0253 31.6119C17.1785 32.889 16.0361 33.8748 14.8922 34.7505C14.4621 35.0797 14.0328 35.3947 13.6093 35.7054C11.6966 37.1086 9.90054 38.4263 8.66975 40.5908C7.47584 42.6904 6.23348 45.6068 5.27857 48.037C4.87589 49.0618 4.52831 49.9898 4.26167 50.7184L39.855 50.7184Z" fill="#E0EBEC"/>
</svg>
