<svg width="46" height="47" viewBox="0 0 46 47" fill="none" xmlns="http://www.w3.org/2000/svg">
<path d="M38 25.9999V36.9999C38 41.4182 34.4183 44.9999 30 44.9999H10C5.58172 44.9999 2 41.4182 2 36.9999V16.9999C2 12.5817 5.58172 8.99994 10 8.99994H22" stroke="#BFCCCE" stroke-width="3" stroke-linecap="round"/>
<path fill-rule="evenodd" clip-rule="evenodd" d="M20.1248 19.1569L17.182 28.4637L26.4888 25.5208L42.309 9.70061L42.3813 9.59931L41.1603 8.72794C42.3813 9.59931 42.3816 9.59887 42.3819 9.59843L42.3826 9.59748L42.3841 9.59539L42.3876 9.59041L42.3968 9.57732C42.4038 9.56722 42.4127 9.55436 42.4232 9.53887C42.4442 9.50791 42.4719 9.46628 42.5048 9.41493C42.5703 9.31252 42.6576 9.16982 42.7543 8.99462C42.9448 8.64942 43.1861 8.15234 43.3637 7.57067C43.7049 6.45289 43.9083 4.62667 42.4636 3.18201C41.019 1.73734 39.1927 1.94072 38.075 2.28197C37.4933 2.45955 36.9962 2.70083 36.651 2.89132C36.4758 2.98801 36.3331 3.07529 36.2307 3.14087C36.1794 3.17375 36.1377 3.20144 36.1068 3.22245C36.0913 3.23297 36.0784 3.24183 36.0683 3.24887L36.0552 3.25804L36.0502 3.26156L36.0482 3.26305L36.0472 3.26372C36.0468 3.26404 36.0463 3.26435 36.9177 4.4853L36.0463 3.26435L35.945 3.33665L20.1248 19.1569ZM40.1277 7.54516C40.0748 7.64107 40.0278 7.7188 39.9932 7.77376L39.6352 8.13175L37.5139 6.01043L37.8719 5.65244C37.9268 5.61783 38.0046 5.57085 38.1005 5.51793C38.3265 5.39319 38.6271 5.25011 38.9509 5.15124C39.6442 4.93959 40.0606 5.02164 40.3423 5.30333C40.624 5.58501 40.7061 6.00143 40.4944 6.6947C40.3955 7.01856 40.2525 7.31911 40.1277 7.54516ZM35.3926 8.13175L22.7643 20.76L21.7833 23.8623L24.8856 22.8814L37.5139 10.2531L35.3926 8.13175Z" fill="#BFCCCE"/>
</svg>
