<svg width="60" height="60" viewBox="0 0 60 60" fill="none" xmlns="http://www.w3.org/2000/svg">
<path d="M26.7094 10.7522C27.7027 7.5066 32.2973 7.5066 33.2906 10.7522V10.7522C33.9893 13.0354 36.7441 13.9305 38.6514 12.494V12.494C41.3627 10.4521 45.0799 13.1528 43.9757 16.3624V16.3624C43.199 18.6202 44.9015 20.9636 47.2889 20.9226V20.9226C50.6826 20.8643 52.1024 25.234 49.3226 27.1816V27.1816C47.3671 28.5517 47.3671 31.4483 49.3226 32.8184V32.8184C52.1024 34.766 50.6826 39.1357 47.2889 39.0774V39.0774C44.9015 39.0364 43.199 41.3798 43.9757 43.6376V43.6376C45.0799 46.8472 41.3627 49.5479 38.6514 47.506V47.506C36.7441 46.0695 33.9893 46.9646 33.2906 49.2478V49.2478C32.2973 52.4934 27.7027 52.4934 26.7094 49.2478V49.2478C26.0107 46.9646 23.2559 46.0695 21.3486 47.506V47.506C18.6373 49.5479 14.9201 46.8472 16.0243 43.6376V43.6376C16.801 41.3798 15.0985 39.0364 12.7111 39.0774V39.0774C9.31742 39.1357 7.89759 34.766 10.6774 32.8184V32.8184C12.6329 31.4483 12.6329 28.5517 10.6774 27.1816V27.1816C7.89759 25.234 9.31742 20.8643 12.7111 20.9226V20.9226C15.0985 20.9636 16.801 18.6202 16.0243 16.3624V16.3624C14.9201 13.1528 18.6373 10.4521 21.3486 12.494V12.494C23.2559 13.9305 26.0107 13.0354 26.7094 10.7522V10.7522Z" stroke="#BFCCCE" stroke-width="3" stroke-linecap="square"/>
<circle cx="30.1632" cy="30.163" r="10.9239" stroke="#BFCCCE" stroke-width="3"/>
</svg>
